<?xml version="1.0" encoding="UTF-8"?>
<svg id="Layer_1" data-name="Layer 1" xmlns="http://www.w3.org/2000/svg" viewBox="0 0 286.06 69.68">
  <defs>
    <style>
      .cls-1 {
        fill: #fff;
        stroke-width: 0px;
      }
    </style>
  </defs>
  <path class="cls-1" d="m155.23,15.09c-1.91,7.64-3.77,15.1-5.62,22.51.26.34.57.24.83.24,3.84,0,7.68,0,11.52,0,.32,0,.64-.03.96-.06.78-.07,1.38-.42,1.67-1.17.29-.78.14-1.51-.45-2.1-1.55-1.56-3.1-3.11-4.66-4.67-.76-.76-1.54-1.51-2.3-2.27-3.99-3.99-2.28-10.79,3.13-12.47,1.24-.39,2.5-.44,3.79-.43,7.04.03,14.08.04,21.12.05.32,0,.63,0,1.18,0-.73,2.8-1.42,5.47-2.11,8.13-.46.32-.96.18-1.42.18-4.28,0-8.56.02-12.84,0-.91,0-1.73.13-2.11,1.02-.39.94.09,1.66.76,2.33,2.01,2.01,3.96,4.07,5.98,6.07,1.52,1.51,2.75,3.13,2.61,5.53,2.64,0,5.19-.01,7.74,0,.72,0,.68-.54.79-.97,1.86-7.27,3.71-14.53,5.56-21.8.02-.08.05-.15.11-.31h10.8c-2,7.62-3.99,15.18-5.98,22.75,2.04.37,2.05.36,2.49-1.42,1.69-6.78,3.38-13.56,5.07-20.34.09-.34.2-.67.32-1.03h10.66c-2.05,7.66-4.08,15.22-6.1,22.78,1.97.43,2.03.38,2.51-1.45,1.76-6.84,3.53-13.68,5.3-20.52.11-.43.14-.88.76-.88,3.31,0,6.62,0,10.08,0-.78,3.01-1.52,5.9-2.28,8.77-1.55,5.9-3.21,11.78-4.64,17.72-.64,2.64-2.82,4.05-5.11,4.31-.75.09-1.52.1-2.28.1-22.6,0-45.2-.02-67.8.02-4.55,0-7.6-4.12-6.56-8.18,1.43-5.61,2.89-11.21,4.34-16.81.42-1.62.85-3.24,1.25-4.87.11-.46.23-.79.83-.79,3.31.02,6.63.01,10.13.01Z"/>
  <path class="cls-1" d="m98.77,15.58c-5.12,5.2-10.23,10.4-15.35,15.59-4.54,4.6-9.11,9.18-13.64,13.79-.57.58-1.16.88-1.99.87-3.84-.03-7.68-.02-11.52-.02-.85,0-1.4-.37-2.02-1-2.83-2.85-5.76-5.6-8.87-8.58-.6,2.31-1.19,4.32-1.64,6.37-.69,3.11-.66,3.12-3.83,3.13-2.51,0-5.03,0-7.72,0,.4-1.59.75-3.04,1.13-4.48,1.41-5.45,2.86-10.89,4.2-16.35.14-.57,1.13-1.09.37-1.72-.48-.4-1.24-.14-1.87-.14-4.08-.01-8.16,0-12.24-.02-.89,0-1.74.09-2.1,1.02-.37.94.08,1.67.76,2.34,2.34,2.34,4.7,4.66,6.92,7.12,2.16,2.41,2.11,5.09.89,7.81-1.17,2.62-3.18,4.28-6.2,4.29-7.76.02-15.52,0-23.28,0-.2,0-.39,0-.78,0,.58-2.04,1.11-3.97,1.7-5.89.57-1.87.59-1.86,2.56-1.86,3.84,0,7.68,0,11.52,0,.69,0,1.38-.02,1.95-.46.91-.72.91-2.09-.07-3.07-1.88-1.89-3.82-3.72-5.73-5.58-1.4-1.35-2.58-2.85-2.99-4.8-.99-4.77,2.44-9.21,7.36-9.25,11.24-.09,22.48-.03,33.72-.03.19,0,.39.05.74.1-.82,3.2-1.63,6.35-2.44,9.5.16.14.32.28.48.41,1.03-1.2,1.99-2.47,3.09-3.6,1.84-1.89,3.79-3.67,5.65-5.54.58-.58,1.15-.85,1.98-.84,3.68.04,7.36.05,11.04,0,.84,0,1.43.25,2,.83,1.87,1.9,3.77,3.77,5.65,5.66.22.22.4.5.85.6,2.04-1.98,4.12-4,6.2-6.02.68.09,1.16-.49,1.89-.47,3.41.08,6.83.04,10.24.03.48,0,.95.05,1.39.24Zm-44.04,16.06c2.42,2.49,4.74,4.87,7.12,7.31,3.49-3.39,6.96-6.77,10.33-10.04-2.43-2.47-4.73-4.81-7.09-7.21-3.48,3.34-6.95,6.67-10.36,9.94Z"/>
  <path class="cls-1" d="m235.77,52.69c0-3.19,0-6.35,0-9.5,0-6.76.02-13.51-.01-20.27,0-.82.24-1.34.93-1.76,7.93-4.94,16.14-9.33,25-12.37,4.43-1.52,8.97-2.63,13.73-2.31,2.73.18,5.23.96,7.31,2.86,2.12,1.94,2.47,4.33,1.67,6.9-1.32,4.24-4.18,7.49-7.23,10.55-6.62,6.66-14.24,12.02-22.26,16.83-5.79,3.47-11.76,6.58-18.09,8.95-.3.11-.57.27-1.05.12Z"/>
  <path class="cls-1" d="m235.74,65.97c0-2.99.01-5.91-.01-8.82,0-.57.16-.84.74-1,19.74-5.42,35.6-16.74,48.83-32.08.05-.06.12-.09.46-.33v42.23h-50.02Z"/>
  <path class="cls-1" d="m99.2,15.16h10.82c-1.88,7.52-3.74,15-5.59,22.41.3.37.6.26.86.26,4.64,0,9.28,0,13.92,0,.65,0,1.29-.04,1.83-.45.91-.71.94-1.95-.02-2.94-2.01-2.06-4.04-4.1-6.1-6.11-2.55-2.48-3.6-5.35-2.28-8.8,1.21-3.16,3.72-4.77,6.95-4.83,7.44-.15,14.88-.05,22.32-.04.11,0,.22.06.43.12-.66,2.71-1.32,5.42-2.01,8.24-1.25,0-2.48,0-3.71,0-3.12,0-6.24.02-9.36,0-.97,0-1.9.05-2.3,1.09-.37.97.21,1.65.86,2.31,2.2,2.21,4.35,4.47,6.55,6.68,2.34,2.35,2.54,5.12,1.33,7.97-1.22,2.86-3.38,4.54-6.69,4.54-8.92,0-17.84.07-26.75.08-4.8,0-7.82-3.79-6.67-8.43,1.67-6.74,3.44-13.45,5.2-20.17.13-.49,0-1.05.39-1.47.02-.15.03-.31.05-.46Z"/>
  <path class="cls-1" d="m235.96,17.23V0h50.1v4.32c-.13-.02-.3,0-.42-.07-4.94-2.45-10.17-2.56-15.46-1.72-10.43,1.65-19.74,6.16-28.78,11.36-1.79,1.03-3.53,2.15-5.45,3.33Z"/>
  <path class="cls-1" d="m163.46,65.9c-.36,2.19-1.5,3.49-3.71,3.78-.24-.83-.31-1.48.72-1.78.89-.26,1.25-1.05,1.26-1.87.05-3.19.02-6.37.02-9.59-.49-.03-.92-.06-1.33-.09-.35-1.46-.28-1.54,1.15-1.55.55,0,1.1,0,1.79,0v9.46h9.46c.11-.52-.27-.89-.46-1.3-.58-1.27-1.26-2.5-1.8-3.79-.98-2.35.11-4.12,2.63-4.25,1.43-.08,2.88-.08,4.31,0,2.49.13,3.63,1.97,2.65,4.25-.57,1.32-1.24,2.59-1.87,3.89-.17.35-.32.71-.54,1.18h4.52c0-1.02,0-2.08,0-3.14,0-2,.01-4,0-6,0-.53,0-1.01-.35-1.56-.63-.99.05-1.59,1.91-1.73v14.09h-20.35Zm11.96-9.49h0c-.68,0-1.36-.04-2.03,0-1.38.08-1.92.93-1.33,2.2.82,1.77,1.71,3.5,2.6,5.24.39.76.94.75,1.32.03.93-1.76,1.84-3.53,2.68-5.33.55-1.18-.02-2.03-1.33-2.12-.63-.04-1.27,0-1.91,0Z"/>
  <path class="cls-1" d="m157.31,54.95c.52-.22.98-.18,1.47-.05.28.57.13,1.17.13,1.75.02,2.12.04,4.24,0,6.36-.03,1.87-.87,2.89-2.65,2.89-2.05,0-4.16.49-6.14-.47-.12-.06-.34-.07-.45,0-1.34.8-2.81.5-4.23.51-4.52.03-9.04.01-13.6.01-.34.14.26.85-.44.8-.65-.05-1.32.2-1.81-.55-1.54-2.34-1.76-5.76.26-8.26,1.42-1.76,3.22-2.88,5.51-3.02.89-.05,1.48-.64,2.21-.97.31-.14.57-.23.99-.13v10.5c3.25,0,6.4.04,9.55-.02.89-.02.96-.82.96-1.53,0-2.16,0-4.32,0-6.48,0-.44,0-.87,0-1.29,1.58-.37,1.66-.31,1.66,1.16,0,2.16-.01,4.32,0,6.48,0,1.47.23,1.69,1.65,1.7,1.12,0,2.24-.04,3.36.01,1.1.05,1.51-.47,1.5-1.51-.01-2.4,0-4.8,0-7.2,0-.23.04-.46.05-.69Zm-20.41,1.54c-2.52-.22-4.74.78-5.99,2.71-1.04,1.61-1.11,3.32-.51,5.07h6.5v-7.78Z"/>
  <path class="cls-1" d="m126.32,49.66c-.55.12-.87.02-.7-.66.14-.58.23-1.17.34-1.74h43.26c.33,2.15.26,2.24-1.66,2.32-.64.03-1.28,0-1.91.01-.31-.26-.69-.17-1.04-.17-12.39,0-24.78,0-37.17.01-.38,0-.81-.16-1.12.21Z"/>
  <path class="cls-1" d="m102.33,46.96c.08.64-.16,1.04-.23,1.46-.15.86-.6,1.14-1.48,1.12-3.08-.06-6.16-.02-9.24-.03-9.76-.01-19.52-.03-29.27-.04-1.23,0-2.47,0-3.74,0-.18-.86-.11-1.51,0-2.35,14.66-.32,29.28-.06,43.96-.16Z"/>
  <path class="cls-1" d="m104.87,47.04h9.41c-.51,2.19-1,4.31-1.51,6.47h-9.68c.61-2.22,1.19-4.35,1.77-6.47Z"/>
  <path class="cls-1" d="m125.41,46.99c-.69,2.21-.84,4.39-1.67,6.49h-9.46c.51-2.05,1-4.05,1.48-6.04.1-.41.38-.45.72-.45,2.91,0,5.81,0,8.93,0Z"/>
  <path class="cls-1" d="m83.63,64.93c-.07.41-.12.71-.17,1-.48.12-.91.16-1.37-.02v-13.02c.48-.13.9-.13,1.41.02v4.47c1.38-.95,2.7-1.62,4.27-1.4,1.55.21,2.77.96,3.63,2.27,1.32,1.99,1.02,4.96-.69,6.62-1.41,1.37-4.05,2.31-7.08.07Zm-.11-3.88c0,2.19,1.52,3.84,3.56,3.84,2.06,0,3.65-1.66,3.65-3.79,0-2.12-1.61-3.77-3.67-3.76-2.03,0-3.53,1.58-3.54,3.72Z"/>
  <path class="cls-1" d="m49.01,65.94c-1.16.37-1.7-.09-2.07-1.15-.36-1.04-.51-2.46-1.39-2.95-.86-.48-2.18-.15-3.29-.17-.76-.01-1.51,0-2.3,0-.46,1.11-.98,2.15-1.31,3.25-.33,1.11-.96,1.32-2.07.95.94-2.25,1.88-4.48,2.81-6.71.8-1.91,1.62-3.82,2.39-5.75.23-.57.59-.64,1.11-.64.48,0,.8.08,1.01.59,1.69,4.09,3.4,8.18,5.1,12.26.03.07,0,.16,0,.3Zm-3.94-5.78c-.75-1.83-1.45-3.52-2.25-5.47-.81,1.97-1.51,3.67-2.25,5.47h4.49Z"/>
  <path class="cls-1" d="m78.54,57.18c-.04-1.19.66-1.14,1.54-.91v9.65c-.71.12-1.52.49-1.55-.97-1.54,1.2-3.14,1.59-4.91,1.13-1.13-.3-2.02-.96-2.7-1.88-1.43-1.93-1.28-4.71.31-6.55,1.74-2.01,4.12-2.18,7.31-.47Zm-3.47.17c-2.07,0-3.63,1.64-3.62,3.8,0,2.14,1.58,3.75,3.67,3.76,2.02,0,3.55-1.66,3.56-3.87,0-2.05-1.59-3.69-3.6-3.69Z"/>
  <path class="cls-1" d="m63.23,65.99c-.72,0-1.61.41-1.53-.93-3.13,1.78-5.62,1.55-7.42-.68-1.57-1.93-1.5-4.87.16-6.74,1.81-2.04,4.44-2.22,7.23-.43.09-.92.8-.92,1.57-1.02v9.8Zm-8.56-4.89c0,2.19,1.54,3.82,3.6,3.82,2.01,0,3.65-1.73,3.63-3.83-.02-2.08-1.59-3.72-3.58-3.74-2.09-.02-3.66,1.58-3.66,3.75Z"/>
  <path class="cls-1" d="m105.23,57.29c.09-.46.15-.76.21-1.09h1.31v9.72c-.35.23-.79.05-1.18.11-.43-.26-.06-.71-.29-.97-3.9,2.09-7.05,1.74-8.48-2.92-.65-2.11.21-4.06,2.1-5.31,2.11-1.41,4.22-1.13,6.34.46Zm-3.54.06c-2.06.02-3.53,1.64-3.5,3.89.02,2.12,1.55,3.68,3.59,3.66,2.09-.03,3.63-1.65,3.61-3.81-.02-2.14-1.62-3.75-3.7-3.73Z"/>
  <path class="cls-1" d="m187.21,65.81c-1.54.26-1.55.26-1.56-1.19,0-3.15-.08-6.3.03-9.45.03-1.02-.79-1.83-.4-2.97.56-.15,1.19-.33,1.93-.53v14.14Z"/>
  <path class="cls-1" d="m66.59,66h-1.32v-9.73c.62-.14,1.22-.32,1.57.5.74-.4,1.44-.9,2.35-.77.28.45.17.91.09,1.37-2.38.93-2.58,1.23-2.59,3.89,0,1.48,0,2.95-.01,4.43,0,.08-.04.15-.1.33Z"/>
  <path class="cls-1" d="m51.55,65.91c-.47.17-.86.13-1.32.05-.21-.55-.1-1.15-.1-1.73-.01-3.23.04-6.47-.02-9.7-.02-1.06.23-1.66,1.44-1.63v13.01Z"/>
  <path class="cls-1" d="m93.71,56.25c.47-.11.86-.12,1.33,0v9.7h-1.33v-9.7Z"/>
  <path class="cls-1" d="m126.32,49.66c.32-.37.75-.21,1.12-.21,12.39-.01,24.78-.01,37.17-.01.35,0,.72-.09,1.04.17-1.16.04-2.31.1-3.47.1-11.68.01-23.35.01-35.03.02-.28,0-.56-.04-.84-.05Z"/>
  <path class="cls-1" d="m146.71,67.79c.67-.63,1.33-.93,2.05-.25.44.42.48.94.06,1.39-.72.76-1.42.47-2.1-.19-.65.62-1.37.95-2.09.21-.41-.42-.42-.98.02-1.39.69-.66,1.37-.45,2.06.24Z"/>
  <path class="cls-1" d="m133.5,53.33c-.28.19-.49.38-.73.5-.54.27-1,.1-1.39-.31-.3-.32-.36-.7-.17-1.1.26-.56.79-.74,1.29-.57.62.2,1.17.18,1.78-.01.54-.17,1.06-.12,1.39.54.26.53.17.93-.23,1.26-.47.4-1,.44-1.52.04-.15-.12-.29-.24-.42-.35Z"/>
  <path class="cls-1" d="m156.11,68.22c-.02.71-.42,1.09-1.1,1.12-.69.03-1.16-.32-1.18-1.04-.02-.71.4-1.1,1.1-1.13.69-.02,1.12.32,1.19,1.05Z"/>
  <path class="cls-1" d="m95.12,55.17c-.58.17-.97.17-1.42,0v-2.25c.36-.26.81-.05,1.26-.14.28.81.05,1.59.16,2.39Z"/>
  <path class="cls-1" d="m99.2,15.16c-.02.15-.03.31-.05.46-.13-.01-.26-.03-.38-.04-.44-.2-.9-.24-1.39-.24-3.41.01-6.83.05-10.24-.03-.73-.02-1.21.56-1.89.47.2-.44.54-.69,1.03-.69,4.31.02,8.61.05,12.92.07Z"/>
</svg>